<?xml version="1.0" encoding="utf-8"?>
<svg version="1.1" xmlns="http://www.w3.org/2000/svg" xmlns:xlink="http://www.w3.org/1999/xlink" x="0px" y="0px"
	 viewBox="0 0 24 24" enable-background="new 0 0 24 24" xml:space="preserve">
<g id="airport-2">
	<circle id="map-path_1_" fill="#FFFFFF" stroke="#333399" stroke-width="2" stroke-miterlimit="10" cx="12" cy="12" r="11"/>
	<g>
		<path fill="#333399" d="M7.7,16.7c0,0.7-0.6,1.2-1.3,1.2c-0.7,0-1.2-0.6-1.2-1.2c0-0.7,0.6-1.3,1.2-1.3C7.2,15.4,7.7,16,7.7,16.7
			L7.7,16.7z M7.7,16.7"/>
		<path fill="#333399" d="M21,10.8c-0.2-0.9-0.9-1.7-1.6-1.7c-0.7,0-1.1,0.6-0.9,1.4c0.1,0.4,0.3,0.8,0.5,1c0.3,0.3,0.3,0.4-0.1,0.3
			l-7.6-0.8c-0.4,0-0.9,0.2-1.2,0.3c-0.1,0.1-0.3,0.1-0.5,0.1c-0.2,0-0.4,0-0.6-0.1C8.7,11.3,8.3,11,7.9,11c-0.4,0-0.8-0.3-0.9-0.8
			L6.8,9.7c0.4,0,0.8,0,1.3,0c0.4,0,0.9,0,1.3,0c0.4,0,0.8,0,1.1,0c0.7,0,1.1,0,1.1,0c0.2,0,0.3-0.1,0.4-0.3c0-0.2-0.1-0.4-0.3-0.4
			c0,0-0.4-0.1-1.1-0.1c-0.3,0-0.7-0.1-1.1-0.1C9,8.8,8.5,8.8,8.1,8.7c-0.4,0-0.9-0.1-1.3-0.1c-0.4,0-0.8,0-1.1-0.1
			c-0.3,0-0.6,0-0.8,0c-0.2,0-0.3,0.1-0.3,0.1c-0.1,0-0.2,0.1-0.2,0.2c-0.1,0.2,0,0.5,0.2,0.5c0,0,0.1,0,0.3,0.1
			c0.2,0,0.5,0.1,0.8,0.1c0.2,0,0.3,0,0.5,0l0.1,0.5c0.1,0.4,0,0.8-0.2,0.8H3.9c-0.2,0-0.4,0.1-0.4,0.3v0.1c-0.1,0-0.2,0-0.3,0.1
			C3,11.6,3,11.8,3,12.1c0,0.2,0.1,0.5,0.2,0.6c0.1,0.1,0.2,0.1,0.3,0.1v0c0,0.4,0.3,0.9,0.7,1.1c0.3,0.1,1.4,0.4,3.2,0.6l-0.1,0.2
			c0,0,0,0,0,0C5.9,14.1,5,15,5,15c-0.1,0.1-0.1,0.3,0,0.4c0.1,0.1,0.3,0.1,0.4,0c0,0,0.6-0.6,1.6-0.3c0.9,0.3,1,1.3,1,1.3
			c0,0.2,0.1,0.3,0.3,0.3c0,0,0,0,0,0c0.2,0,0.3-0.2,0.3-0.3c0,0,0-0.9-0.7-1.5l0.3-0.2c0.4-0.2,0.8-0.3,1.2-0.3c0.1,0,0.1,0,0.2,0
			c3.7,0.1,7.3-1.2,10.6-2.1C20.8,12.3,21.2,11.6,21,10.8L21,10.8z"/>
		<path fill="#333399" d="M11.1,12.5"/>
	</g>
</g>
</svg>
