<?xml version="1.0" encoding="utf-8"?>
<svg version="1.1" xmlns="http://www.w3.org/2000/svg" xmlns:xlink="http://www.w3.org/1999/xlink" x="0px" y="0px"
	 viewBox="0 0 24 24" enable-background="new 0 0 24 24" xml:space="preserve">
<g id="airport-1">
		<circle id="map-path" display="inline" fill="#FFFFFF" stroke="#006600" stroke-width="2" stroke-miterlimit="10" cx="12" cy="12" r="11"/>
	<path id="map-icon" display="inline" fill="#006600" d="M20.1,16.1c0.1,0,0.2,0,0.2,0c0.1,0,0.1-0.1,0.1-0.2v-1.2
		c0-0.2-0.1-0.4-0.3-0.6l-6.5-3.8c-0.2-0.1-0.3-0.3-0.3-0.6V5.3c0-0.2,0-0.4-0.1-0.7c-0.3-0.6-0.6-1-1.1-1.1c-0.1,0-0.1,0-0.2,0
		c-0.1,0-0.1,0-0.2,0c0,0-0.1,0-0.1,0c0,0-0.1,0-0.1,0.1c-0.2,0-0.3,0.1-0.4,0.3c-0.1,0.2-0.2,0.3-0.3,0.4l-0.1,0.2
		c-0.1,0.2-0.1,0.4-0.1,0.7v4.3c0,0.3-0.1,0.4-0.3,0.6L3.8,14c-0.2,0.1-0.3,0.3-0.3,0.6v1.2c0,0.1,0,0.2,0.1,0.2
		c0.1,0,0.1,0.1,0.2,0l6.4-2.1c0.1,0,0.2,0,0.2,0c0.1,0.1,0.1,0.1,0.1,0.2v3.3c0,0.3-0.1,0.4-0.3,0.6l-0.9,0.6
		c-0.2,0.1-0.3,0.3-0.3,0.6v0.8c0,0.1,0,0.2,0.1,0.2c0.1,0,0.1,0.1,0.2,0l2.1-0.6c0.2-0.1,0.5-0.1,0.7,0l2.1,0.6c0.1,0,0.2,0,0.2,0
		c0.1,0,0.1-0.1,0.1-0.2v-0.8c0-0.3-0.1-0.4-0.3-0.6l-0.9-0.6c-0.2-0.1-0.3-0.3-0.3-0.6v-3.3c0-0.1,0-0.2,0.1-0.2c0.1,0,0.1,0,0.2,0
		L20.1,16.1z"/>
</g>
</svg>
